<svg xmlns="http://www.w3.org/2000/svg" viewBox="0 0 1976.05 607.68"><defs><style>.cls-1{fill:#fff9dd;}.cls-2{fill:#f15a24;}.cls-3{fill:#fff6d7;}.cls-4{fill:#4e4e4e;}.cls-5{fill:#fff9de;}.cls-6{fill:#fff;}.cls-7{fill:#ed6d2a;}.cls-8{fill:#9a9a9a;}.cls-9{fill:#333;}.cls-10{fill:#ffdd92;}.cls-11{fill:#966f4e;}</style></defs><title>アセット 2</title><g id="レイヤー_2" data-name="レイヤー 2"><g id="レイヤー_1-2" data-name="レイヤー 1"><path class="cls-1" d="M1569.53.89c6.5.65,12.89-1.37,19.38-.78,10.8,2,22.56,2.63,31.78,8.69,3,2.13,6.6,3.15,10.22,3.92,1.34,2.15,2.52,4.42,2.56,6.94-13.82-8.55-29.92-15-46.92-15.16-16.3,0-33.08-.6-48.66,4.47a103.44,103.44,0,0,0-22.37,10.33c.21-1.39-.19-3,1-4.17C1530.89,3.75,1550.88.56,1569.53.89Z"/><path class="cls-2" d="M1537.89,9c15.58-5.07,32.36-4.47,48.66-4.47,17,.18,33.1,6.61,46.92,15.16,12.39,7.59,20.22,19.41,28,30.64,66.81,94.55,132.7,189.62,198.92,284.5,2.59,3.76,5.46,7.4,7.39,11.51l-5.09-.35c-8.83-13.55-18.22-26.79-28-39.8-3.24-5.48-6.69-10.85-10.18-16.2-4.53-8.48-11.14-15.83-16.41-23.9-7.22-9-12.95-18.83-19.69-28.08-4.59-6.62-10.51-12.43-14.4-19.45-7.26-12.47-17.49-23.27-24.94-35.63-2.52-4.08-5.2-8.1-8.06-12-3.47-4.7-5.54-10.24-10.08-14.27a22.31,22.31,0,0,1-6.22-8.71c-2.13-5.66-7.18-9.73-10.62-14.69-3.4-4.78-6.8-9.55-10.38-14.23-4.13-5.34-5.62-12-10.24-17-4.43-5-8.84-10-12-15.75a143.81,143.81,0,0,0-15.17-22.85c-4.6-5.48-8-11.7-12.93-17-3.86-4.08-6.05-9.21-10.12-13.13-4.61-4.36-9.09-9.07-15.2-11.75-5.76-2.48-10.27-7-16.54-8.55-8.21-2-16.45-4.39-25-4.26-17.72-.06-36.41-1.47-52.91,5.52-11.79,5.42-23.1,12.12-31.94,21.07-5.15,5.12-8.61,11.32-12.62,17.13-4.81,7.08-9.64,14.15-15.16,20.79-5.87,6.91-9,15.32-14.91,22.2a143.24,143.24,0,0,0-12,15.59c-4.89,7.66-11.77,14.16-16.19,22.09-3.5,6.37-8.25,12.07-13.08,17.65-.08-.51-.25-1.54-.34-2.05,0-.33,0-1,0-1.35Q1455,94,1493,40.74a73,73,0,0,1,22.49-21.44A103.44,103.44,0,0,1,1537.89,9Z"/><path class="cls-2" d="M1533.58,14.22c16.5-7,35.19-5.58,52.91-5.52,8.59-.13,16.83,2.28,25,4.26,6.27,1.53,10.78,6.07,16.54,8.55,6.11,2.68,10.59,7.39,15.2,11.75,4.07,3.92,6.26,9.05,10.12,13.13,4.93,5.26,8.33,11.48,12.93,17a143.81,143.81,0,0,1,15.17,22.85c3.13,5.75,7.54,10.79,12,15.75,4.62,5.07,6.11,11.71,10.24,17,3.58,4.68,7,9.45,10.38,14.23,3.44,5,8.49,9,10.62,14.69a22.31,22.31,0,0,0,6.22,8.71c4.54,4,6.61,9.57,10.08,14.27,2.86,3.9,5.54,7.92,8.06,12,7.45,12.36,17.68,23.16,24.94,35.63,3.89,7,9.81,12.83,14.4,19.45,6.74,9.25,12.47,19.08,19.69,28.08,5.27,8.07,11.88,15.42,16.41,23.9,3.49,5.35,6.94,10.72,10.18,16.2,9.79,13,19.18,26.25,28,39.8l5.09.35,1.47.1c-.13.46-.39,1.36-.53,1.82-.56,2.79-2.81,6.2,0,8.6,16.06,16.86,25.64,37.63,39.81,55.68,2.57,3.26,4.88,7.09,9.34,8.52l.14.06v0c1.46,10.42,10.77,17.63,15.65,26.68,4.26,8.1,11,14.83,15.37,22.86,2.66,5,9.29,9,8,15.13a24.39,24.39,0,0,1-6.86.84c-19.56.51-39.13.48-58.68.19-16.93-1-33.9-.53-50.84-.7-2.78-.25-6.32.34-8.15-2-6.33-6.79-11-14.69-16-22.26-6.22-9.8-14.48-18.38-20.88-28.07-2.88-4-4.51-8.58-7.7-12.36-1.3-1.58-3.8-1.16-5.63-1.67l-.27-.44c.3-2.22,1.59-4.62,0-6.67-3.8-6.25-9.08-11.68-12.64-18.06-3.62-5.71-6.18-12.46-12.32-16.44-7.68-4.61-17.31-2.79-25.94-2.78-109.93.17-219.86,0-329.78.08-4.66,0-9.37-.37-14,.27-2.15,2.75-2.35,6.37-4.64,9.05-3.12,3.2-7.84,5.09-10,9-2.36,4.32-4.37,8.82-7.51,12.74-6.69,8.52-11.07,18.28-17.59,26.89-3,4.06-7,7.47-9.5,11.85-1.95,3.22-3.34,6.86-6.49,9.31-3.07,2.61-7.42,4.39-8.78,8.26-2.47,6.4-5.72,12.76-11,17.67-2.54,2.39-6.5,2.14-9.85,2.32-30.49-.09-61,0-91.46.05-7.65-.06-15.46.79-22.9-1.23,1.41-3.88,4.28-7,7.43-9.84,2.65-2.31,2.44-5.86,3.72-8.76,2-2.55,5-4.38,7.19-6.78,3.72-3.72,5.8-8.44,8.27-12.85,3.67-6.58,9.22-12.08,13.74-18.18,3.79-4.86,6.47-10.32,9.89-15.4a27.83,27.83,0,0,0,3.37-7.74c7.75-11.65,16.5-22.75,24.6-34.21,6.31-8.56,12.18-17.38,18.92-25.68,8-9.92,12.49-22,22.35-30.67,3-3,7.86-2.24,11.88-2.29,10.9.53,21.76-1.14,32.66-.54,10.17.61,20.34-.29,30.52,0,32.74-.41,65.49.5,98.23.14,21.83.75,43.67-.26,65.51-.33,14.33-.13,28.66,1,43,.47,24.82-.92,49.67-.28,74.5-.16,14.4-.43,28.78,1.2,43.18.47.06-1.28.15-2.55.27-3.82,0-.24,0-.73,0-1,.71-5.69-3.45-10-7-14.08-5.19-5.81-5.36-14-11.3-19.39-6.19-5.68-9-13.44-14.1-19.79a61.46,61.46,0,0,1-8-12.15c-2.78-6.19-9.93-9.67-12.53-16-2.74-6.6-7.59-12.15-11.74-18-3.31-4.75-7.67-8.88-10.54-13.88-3.18-5.49-6-11.23-10.29-16.1-5.83-6.56-8.82-14.77-15-21.07-8-8.15-11.93-18.71-19.85-26.88-4.29-4.32-4.7-10.86-9.8-14.6-2.77-2.25-7-1.2-9.32,1.08-6.17,5.67-8.22,13.89-14.35,19.59-4.82,4.39-7.39,10.22-11.54,15.06-4.38,5.16-5.66,11.91-10.37,16.9-1.51.77-3.06,1.47-4.59,2.17a36.76,36.76,0,0,1-2.78,6.72c-2.11,2.75-5.45,4.77-6.52,8.12-1.22,2.18-1.49,5.49-4.59,6.18-5,1.14-10.12.73-15.17.81-30.11,0-60.23-.08-90.35.07-3.72,0-7.42-.25-11.12-.5,4.14-11.4,14.6-19.5,20.65-30a10.57,10.57,0,0,0,1.17-8.08c4.83-5.58,9.58-11.28,13.08-17.65,4.42-7.93,11.3-14.43,16.19-22.09a143.24,143.24,0,0,1,12-15.59c5.89-6.88,9-15.29,14.91-22.2,5.52-6.64,10.35-13.71,15.16-20.79,4-5.81,7.47-12,12.62-17.13C1510.48,26.34,1521.79,19.64,1533.58,14.22Z"/><path class="cls-2" d="M565.76,17.21c38.11-.45,76.23.28,114.34-.27,2,6.39.93,13,1.22,19.56.18,68.51-.42,137,.29,205.52l3.23-.79c9.22-1.56,14.89-8.77,22.11-13.44,6.14-3.92,10.39-9.66,16.25-13.87a133.7,133.7,0,0,1,13-8.64c4.25-2.62,6.58-6.94,10.4-10s8.23-5.4,12.27-8.2c7.09-4.79,12.8-11,19.62-16,9.07-6.31,17.22-13.58,25.68-20.52,3.79-2.68,8.09-4.83,11.16-8.26,3.87-4.33,9.4-7.09,13.42-11.28,3.83-4.15,9.88-5.89,13.63-10.12,5.37-5.76,13.16-9,18.79-14.56a128.13,128.13,0,0,1,12.56-11.11c5.89-4.55,12.68-8.12,18.13-13.15,4.44-4.13,9.47-7.71,14-11.77,5.69-5.11,12.39-9.19,18.38-14,5.44-4.23,10.16-9.16,15.79-13.19,4.4-3.19,9.43-5.64,13.41-9.3,4.83-4.43,9.55-9.08,15.35-12.51,2.66-1.63,6-1.56,9.09-1.61,22.19.35,44.39.12,66.58,0,17.7.13,35.4.39,53.08.19a128.73,128.73,0,0,1,17.46.43c-1,4.66-6.32,6.13-10.22,8.4-4.7,2.46-7.22,7-11.25,10.15-5.7,4.53-12.57,7.65-18.31,12.11-3.64,2.81-6.63,6.2-10.24,9-5,4-10.86,7.09-16.16,10.79-4.26,3-6.92,7.3-11.09,10.32-4.82,3.5-10.2,6.34-14.78,10.1-13.66,11.13-28.25,21.29-41.65,32.69-6.48,5-13.49,9.49-20,14.5-4.51,3.43-8.19,7.65-13,10.8s-9,6.76-13.39,10.23c-4.85,3.9-11,6.24-15.56,10.42A207.07,207.07,0,0,1,897.63,187c-9.17,6.23-16.37,14.59-26.18,20.08-6.25,3.42-10.4,9-16.12,13-5.51,3.83-10.51,8.23-16.28,11.76a133.77,133.77,0,0,0-13.57,9.93c1,2,2,4.07,2.84,6.16l.13.49a31.89,31.89,0,0,0,1.44,5.57c2,2.33,4.82,3.82,7.15,5.83,3.59,2.85,5.88,6.9,10,9.29,3.24,1.87,6.86,3.15,10,5.17,5.7,3.65,10.1,8.59,14.81,13.19,4.16,4.13,9.8,6.68,14.14,10.62,9.28,8.3,19.56,15.61,29.54,23.19,4.86,3.74,10,7.23,14.18,11.64,4.64,5.09,11.59,7.83,16.38,12.81,9,6.77,17.8,13.84,27,20.41,3.34,2.39,5.91,5.48,8.75,8.33,3.28,3.27,7.92,5,11.61,7.83,3.88,3,5.68,7.66,10,10.2,4.51,2.71,9.24,5.18,13.16,8.59,5.37,4.65,11.13,8.92,16.41,13.66,4.35,3.94,10.08,6.4,14.13,10.64,6.84,7.11,16.43,11.52,23.09,18.8,4.6,5.22,11.59,7.85,17,12.21,7.32,5.6,13.29,12.52,21.21,17.49,5.36,3.83,11.72,7.42,14.22,13.47-6.13.41-12.28.25-18.41.12q-61.56.11-123.13,0a10.23,10.23,0,0,1-7.76-2.71c-7.56-6.49-15.47-12.62-23.65-18.45-4.89-3.36-8.1-8.5-13.82-10.9-6-2.52-8.67-8.47-14.14-11.61-4.52-2.69-7.54-6.9-12-9.68-4.62-2.9-8.28-6.8-12.77-9.84-5.18-3.43-8.56-8.65-14.09-11.71-7.52-4.3-13.76-10.06-20.81-14.91-4.22-2.93-7-7.2-11.31-10a87.61,87.61,0,0,1-8.82-6.33c-5.16-4.52-11.28-8.08-16-13-6.2-6.38-13.81-11.41-21.32-16.43-7.85-5.42-14.08-12.47-22.08-17.72-7.75-4.12-12.85-10.85-19.43-16.16-7-5.58-16-9.15-21.4-16.26-3.23-4.38-9.16-5.85-13.23-9.39-4.63-4-9.06-8.15-13.35-12.42-3.88-4.11-10-5.66-13.82-9.89-4.09-4.42-9.85-7.22-15.84-9q-2-.62-3.93-1.17c-.87,76.28,0,152.58-.44,228.87a60.69,60.69,0,0,1-10.5,1.07q-45.21-.09-90.41,0a112.57,112.57,0,0,1-14.8-1.19C565.64,331.48,565.06,174.34,565.76,17.21Z"/><path class="cls-3" d="M1099.79,13.86c9.58-.48,19.88-2,28.69,2.35-.14,2.78.73,6-1.3,8.38-3.31,2.64-8.31,3-11.13,6.29a75.25,75.25,0,0,1-20,14.5c-4.33,1.77-5.37,6.6-9.36,8.7-4.37,2.34-9.21,4.43-12.16,8.33-3.16,4.69-10.12,6-12.5,11.26l-3.61.33c-5.46,5.43-12.67,9.27-17.34,15.35-2.37,3.37-7.64,2.94-10.42,5.87-3.92,4-8.62,7.2-12.59,11.09-2.36,2.24-4,5.33-7.29,6.56-10.77,3.71-18.36,12-25.56,19.75-7.92,4.13-15.89,8.57-21.69,15.08-2.26,2.73-6.48,3.06-9.84,2,57.23-44.64,115.51-88.16,173-132.55-13.46-.76-27-.27-40.44-.34-38,0-76-.26-114.07.1-2.24,0-4.59.24-6.24,1.74C930,46.61,894.47,74.92,858.76,103.08,820,133.19,782,164,743.12,194l-1.16-.95c5.12-6.55,13.87-9.8,19-16.33A47.91,47.91,0,0,1,774.8,164.6C780,162,784,158.07,788.72,155c3.28-3.23,5.76-7.16,10-9.54.15-.6.46-1.79.62-2.38,8.37-2.12,13.56-8.71,19.63-13.78,3-2.83,7.64-3.88,10-7.28a16.63,16.63,0,0,1,4.42-4c5.45-3.51,9.32-8.69,15-11.91,2.84-1.6,6.29-2.23,8.79-4.32,3.8-3,6.32-7.22,10.51-9.88a246.21,246.21,0,0,0,30.22-23.55c5-4.76,12.28-7.15,16.57-12.58,5.7-7.51,14.46-12.34,22.66-17.35,5.62-3.44,7.82-9.8,13.42-13.26a76,76,0,0,0,13-10.85c27.32-.58,54.65-.44,82-.08C1063.63,14.12,1081.71,13.82,1099.79,13.86Z"/><path class="cls-4" d="M1200.37,16.7c58.32-1.11,116.65-1.48,175-1.41,16.91-.85,33.88-.53,50.82-.51,18.19,1.08,36.43.09,54.65.65-10.69,16-22.6,31.27-33.68,47-10.1,14.12-20.13,28.28-30.4,42.29q-94.14,0-188.28,0c-14,.07-28.32,5-37.76,14.48-4.15,4.27-4.83,10.13-6.45,15.37-3.91,16.5-4.31,33.94.68,50.28,4.59,12.74,18.35,22.78,33.42,23,84.33.22,168.66-.09,253,.12,29.07,1.19,58.18,2.9,86.93,7.27,20.19,3.47,39.17,12.83,53,26.54,13.76,13.93,23.56,31.71,24.32,50.57-118.4-.31-236.8-.1-355.19-.16-24.43-.15-48.85.3-73.27-.17a274.37,274.37,0,0,1-47-4.72c-20.41-3.34-40.24-11.62-54.67-25.25-8.06-7.24-15.75-15.34-19.52-25.18a195.12,195.12,0,0,1-11-81.47c-.17-15-.55-30.06,2.66-44.82,3.19-15.33,7.79-30.54,15.42-44.58a49.1,49.1,0,0,1,6.32-9.68c18.83-21.06,47-34.77,76.67-38.47C1184.09,16.83,1192.24,16.87,1200.37,16.7Z"/><path class="cls-4" d="M1053.85,398.17q49.49.19,99,.14c21.46-.13,42.92.53,64.39.11a24,24,0,0,1-1.23,3.92c-18.06,25.41-36,50.93-53.94,76.4-2.13,2.84-3.71,6.22-7,8.15-1.69-.75-2.81-2.18-4.15-3.31-17.93-16.39-36.88-31.82-55-48.07-12.14-11.12-25-21.54-37.46-32.37A35.91,35.91,0,0,1,1053.85,398.17Z"/><path class="cls-4" d="M1395.6,399.6c7.89-1.07,15.86-.83,23.8-.78,72.62-.53,145.24-.19,217.86-.86-.62,16.66-7.72,32.6-17.5,46.57-10.26,14-26.64,23.12-43.24,30a137.91,137.91,0,0,1-34.18,10.15c-24.23,3.88-48.91,2.31-73.36,3.24-16.49,1.06-33,.39-49.54.67-27-.08-54.09.2-81.14-.24,1.42-4.2,4.7-7.52,7-11.34,9.19-14.66,19.31-28.82,28.47-43.49,5.6-8.81,11.19-17.65,17.26-26.21A62.13,62.13,0,0,0,1395.6,399.6Z"/><path class="cls-5" d="M684.29,16.68a17.12,17.12,0,0,1,3.41,9.54c-.58,4.45-2.27,8.79-2,13.32-.25,46.43.07,92.87,0,139.3.13,11.21-1,22.46.22,33.66.18,2.13,1.29,4.06,2.13,6-2.24,4.24-3.63,9.73.55,13.42,3.95-1.82,7.78-4.84,7.28-9.25,3.18-1,6.72-1.66,9.27-3.79,2.89-2.47,5.06-5.53,7.88-8.06,4.94-4.45,11-7.64,16.52-11.5,3.19-2.2,5.67-5.26,9.28-6.94,1.06-.86,2.3.08,3.13.69l1.16.95c-18.18,14.64-36.79,28.84-54.84,43.63-1.59-1.55-4-2.76-4.4-5-.83-4.36-.29-8.79-.35-13.18.21-65.05-.06-130.09.15-195.15C683.74,21.78,684,19.22,684.29,16.68Z"/><path class="cls-2" d="M965.94,18.67c1.65-1.5,4-1.77,6.24-1.74,38-.36,76.05-.12,114.07-.1,13.47.07,27-.42,40.44.34-57.45,44.39-115.73,87.91-173,132.55-20.64,15.74-41,31.78-62,47.12-7,6-14.29,11.57-21.8,17-7.34,5.22-14.09,11.05-21.33,16.36-5.94,4.5-12,8.84-17.77,13.54-1.5,1-1.86,2.73-2.49,4.22-.81-2.09-1.83-4.12-2.84-6.16a133.77,133.77,0,0,1,13.57-9.93c5.77-3.53,10.77-7.93,16.28-11.76,5.72-4,9.87-9.58,16.12-13,9.81-5.49,17-13.85,26.18-20.08a207.07,207.07,0,0,0,21.74-17.1c4.58-4.18,10.71-6.52,15.56-10.42,4.4-3.47,8.66-7.11,13.39-10.23s8.46-7.37,13-10.8c6.5-5,13.51-9.47,20-14.5,13.4-11.4,28-21.56,41.65-32.69,4.58-3.76,10-6.6,14.78-10.1,4.17-3,6.83-7.37,11.09-10.32,5.3-3.7,11.14-6.77,16.16-10.79,3.61-2.84,6.6-6.23,10.24-9,5.74-4.46,12.61-7.58,18.31-12.11,4-3.13,6.55-7.69,11.25-10.15,3.9-2.27,9.23-3.74,10.22-8.4a128.73,128.73,0,0,0-17.46-.43c-17.68.2-35.38-.06-53.08-.19-22.19.11-44.39.34-66.58,0-3.1.05-6.43,0-9.09,1.61-5.8,3.43-10.52,8.08-15.35,12.51-4,3.66-9,6.11-13.41,9.3-5.63,4-10.35,9-15.79,13.19-6,4.8-12.69,8.88-18.38,14-4.52,4.06-9.55,7.64-14,11.77-5.45,5-12.24,8.6-18.13,13.15a128.13,128.13,0,0,0-12.56,11.11c-5.63,5.51-13.42,8.8-18.79,14.56-3.75,4.23-9.8,6-13.63,10.12-4,4.19-9.55,6.95-13.42,11.28-3.07,3.43-7.37,5.58-11.16,8.26-8.46,6.94-16.61,14.21-25.68,20.52-6.82,5-12.53,11.23-19.62,16-4,2.8-8.47,5.14-12.27,8.2s-6.15,7.35-10.4,10a133.7,133.7,0,0,0-13,8.64c-5.86,4.21-10.11,10-16.25,13.87-7.22,4.67-12.89,11.88-22.11,13.44,1.12-1.21,2.24-2.43,3.44-3.56,18.05-14.79,36.66-29,54.84-43.63,38.86-30,76.89-60.85,115.64-91C894.47,74.92,930,46.61,965.94,18.67Z"/><path class="cls-2" d="M1567.19,113.65c2.3-2.28,6.55-3.33,9.32-1.08,5.1,3.74,5.51,10.28,9.8,14.6,7.92,8.17,11.9,18.73,19.85,26.88,6.22,6.3,9.21,14.51,15,21.07,4.32,4.87,7.11,10.61,10.29,16.1,2.87,5,7.23,9.13,10.54,13.88,4.15,5.88,9,11.43,11.74,18,2.6,6.29,9.75,9.77,12.53,16a61.46,61.46,0,0,0,8,12.15c5.12,6.35,7.91,14.11,14.1,19.79,5.94,5.35,6.11,13.58,11.3,19.39,3.59,4.11,7.75,8.39,7,14.08-5.69-5.85-9.6-12.81-14.14-19.36-22.58-32.66-45.46-65.17-68.11-97.81-8.47-12.16-16.66-24.51-25.7-36.33a84.52,84.52,0,0,1-5.26-7.61c-6.36-10.17-13.58-19.88-20.42-29.78a34.62,34.62,0,0,0-6.78,7.45c-11.45,16.64-23.67,32.85-34.92,49.6-.17-1.82-.35-3.65-.51-5.46,4.71-5,6-11.74,10.37-16.9,4.15-4.84,6.72-10.67,11.54-15.06C1559,127.54,1561,119.32,1567.19,113.65Z"/><path class="cls-2" d="M1410.71,156.78c2.17-2.72,3.29-6.21,6.58-8.09.09.51.26,1.54.34,2.05a10.57,10.57,0,0,1-1.17,8.08c-6,10.45-16.51,18.55-20.65,30,3.7.25,7.4.5,11.12.5,30.12-.15,60.24-.06,90.35-.07,5-.08,10.22.33,15.17-.81,3.1-.69,3.37-4,4.59-6.18,1.07-3.35,4.41-5.37,6.52-8.12a36.76,36.76,0,0,0,2.78-6.72c1.53-.7,3.08-1.4,4.59-2.17.16,1.81.34,3.64.51,5.46l-.59.92c-5.21,7.4-10.15,15-15.39,22.35-43.75-.08-87.51.33-131.26-.18,3.62-3.37,5.44-7.82,8.38-11.62C1398.86,173.81,1404.38,165.06,1410.71,156.78Z"/><path class="cls-2" d="M1868.73,356.83c-2.82-2.4-.57-5.81,0-8.6,7,7.15,11.3,15.92,17.11,23.78,10.69,14.51,20.19,29.71,30.86,44.24,1,1.41,1,3.13,1.19,4.78-4.46-1.43-6.77-5.26-9.34-8.52C1894.37,394.46,1884.79,373.69,1868.73,356.83Z"/><path class="cls-2" d="M828.45,248.42c15.84,10.94,30,23.67,45.57,34.93,8.06,5.61,14.73,12.62,22.85,18.16,35.45,28.41,71.67,56,107.1,84.48q23.27,18.25,46.48,36.59c13.69,11,28,21.37,41.39,32.62,14.47,11.62,29.66,22.55,43.52,34.79-34.07.69-68.15.15-102.23.31-19.86-.17-39.77.37-59.59-.31-31.09-24.66-62.39-49.12-93.54-73.74-22.92-18.36-46.24-36.3-69.14-54.66-13.2-9.78-25.58-20.43-38.62-30.37-28.85-23-58.14-45.5-86.81-68.65.05-.38.13-1.15.16-1.52,6,1.81,11.75,4.61,15.84,9,3.77,4.23,9.94,5.78,13.82,9.89,4.29,4.27,8.72,8.44,13.35,12.42,4.07,3.54,10,5,13.23,9.39,5.41,7.11,14.41,10.68,21.4,16.26,6.58,5.31,11.68,12,19.43,16.16,8,5.25,14.23,12.3,22.08,17.72,7.51,5,15.12,10.05,21.32,16.43,4.7,4.95,10.82,8.51,16,13a87.61,87.61,0,0,0,8.82,6.33c4.33,2.8,7.09,7.07,11.31,10,7.05,4.85,13.29,10.61,20.81,14.91,5.53,3.06,8.91,8.28,14.09,11.71,4.49,3,8.15,6.94,12.77,9.84,4.43,2.78,7.45,7,12,9.68,5.47,3.14,8.13,9.09,14.14,11.61,5.72,2.4,8.93,7.54,13.82,10.9,8.18,5.83,16.09,12,23.65,18.45a10.23,10.23,0,0,0,7.76,2.71q61.56,0,123.13,0c6.13.13,12.28.29,18.41-.12-2.5-6.05-8.86-9.64-14.22-13.47-7.92-5-13.89-11.89-21.21-17.49-5.43-4.36-12.42-7-17-12.21-6.66-7.28-16.25-11.69-23.09-18.8-4-4.24-9.78-6.7-14.13-10.64-5.28-4.74-11-9-16.41-13.66-3.92-3.41-8.65-5.88-13.16-8.59-4.36-2.54-6.16-7.24-10-10.2-3.69-2.84-8.33-4.56-11.61-7.83-2.84-2.85-5.41-5.94-8.75-8.33-9.24-6.57-18-13.64-27-20.41-4.79-5-11.74-7.72-16.38-12.81-4.16-4.41-9.32-7.9-14.18-11.64-10-7.58-20.26-14.89-29.54-23.19-4.34-3.94-10-6.49-14.14-10.62-4.71-4.6-9.11-9.54-14.81-13.19-3.13-2-6.75-3.3-10-5.17-4.08-2.39-6.37-6.44-10-9.29-2.33-2-5.2-3.5-7.15-5.83A31.89,31.89,0,0,1,828.45,248.42Z"/><path class="cls-2" d="M1303.59,308.34c1.53-2.28,4.78-2,7.32-2.12q172.29,0,344.56,0c17.12,0,34.25.13,51.34-.75-.12,1.27-.21,2.54-.27,3.82-14.4.73-28.78-.9-43.18-.47-24.83-.12-49.68-.76-74.5.16-14.35.54-28.68-.6-43-.47-21.84.07-43.68,1.08-65.51.33-32.74.36-65.49-.55-98.23-.14-10.18-.31-20.35.59-30.52,0-10.9-.6-21.76,1.07-32.66.54-4,0-8.86-.75-11.88,2.29-9.86,8.67-14.4,20.75-22.35,30.67-6.74,8.3-12.61,17.12-18.92,25.68-8.1,11.46-16.85,22.56-24.6,34.21-6.9,6.33-10.22,14.85-15.69,22.09-4.76,6.43-9.6,12.83-14.63,19.1-.28-.58-.83-1.75-1.1-2.33,6.89-11.31,15-22,22.76-32.81,4.26-6.84,9.9-12.9,13.82-19.93,1.39-2.74,3.89-4.85,5.43-7.52,2.81-4.79,7.4-8.59,9.59-13.69a43.13,43.13,0,0,0,4.9-6c3.07-4.28,5.72-8.81,8.93-13C1285,335,1293.6,321.22,1303.59,308.34Z"/><path class="cls-2" d="M1387.35,375.69c4.62-.64,9.33-.23,14-.27,109.92-.08,219.85.09,329.78-.08,8.63,0,18.26-1.83,25.94,2.78,6.14,4,8.7,10.73,12.32,16.44,3.56,6.38,8.84,11.81,12.64,18.06,1.59,2.05.3,4.45,0,6.67-9.46-12.88-18.38-26.08-27.67-39.07-78.53-.76-157.09-.2-235.63-.3-42.75.22-85.51-.48-128.26.24-6.33,9.24-13.27,18.12-19.49,27.41-18.73,26.79-37.91,53.31-57.06,79.84-45.26.44-90.52.17-135.79.13.56-4,3.34-7.17,5.56-10.51,6.17-9,12.58-17.86,19.08-26.66,2.34-3.14,3.87-6.81,7-9.44.27.58.82,1.75,1.1,2.33,5-6.27,9.87-12.67,14.63-19.1,5.47-7.24,8.79-15.76,15.69-22.09a27.83,27.83,0,0,1-3.37,7.74c-3.42,5.08-6.1,10.54-9.89,15.4-4.52,6.1-10.07,11.6-13.74,18.18-2.47,4.41-4.55,9.13-8.27,12.85-2.24,2.4-5.17,4.23-7.19,6.78-1.28,2.9-1.07,6.45-3.72,8.76-3.15,2.82-6,6-7.43,9.84,7.44,2,15.25,1.17,22.9,1.23,30.48-.07,61-.14,91.46-.05,3.35-.18,7.31.07,9.85-2.32,5.32-4.91,8.57-11.27,11-17.67,1.36-3.87,5.71-5.65,8.78-8.26,3.15-2.45,4.54-6.09,6.49-9.31,2.47-4.38,6.49-7.79,9.5-11.85,6.52-8.61,10.9-18.37,17.59-26.89,3.14-3.92,5.15-8.42,7.51-12.74,2.18-3.93,6.9-5.82,10-9C1385,382.06,1385.2,378.44,1387.35,375.69Z"/><path class="cls-2" d="M1782.29,419.73c1.83.51,4.33.09,5.63,1.67,3.19,3.78,4.82,8.39,7.7,12.36,6.4,9.69,14.66,18.27,20.88,28.07,5,7.57,9.68,15.47,16,22.26,1.83,2.36,5.37,1.77,8.15,2,16.94.17,33.91-.26,50.84.7,19.55.29,39.12.32,58.68-.19a24.39,24.39,0,0,0,6.86-.84c1.3-6.13-5.33-10.13-8-15.13-4.37-8-11.11-14.76-15.37-22.86-4.88-9.05-14.19-16.26-15.65-26.68l2-.1c4.78,7.37,10,14.51,14.78,21.89,10,15.38,21.77,29.77,30.64,45.71q-67.7.58-135.39,0C1814.11,465.64,1797.54,443.05,1782.29,419.73Z"/><path class="cls-4" d="M70.17,596.58H61.81a1.76,1.76,0,0,1-1.42-.6L25.64,558H16v37.4c0,1-.48,1.4-1.33,1.4H8.46c-1,0-1.43-.4-1.43-1.4v-81c0-1.1.48-1.6,1.33-1.6h6.27c.85,0,1.33.6,1.33,1.6V549h9.59l33.79-35.31c.48-.6.76-.9,1.43-.9h8.54c.57,0,1,.2,1,.6a1.37,1.37,0,0,1-.47,1L32.67,553.28l38.16,41.5a1.39,1.39,0,0,1,.48.9A1,1,0,0,1,70.17,596.58Z"/><path class="cls-4" d="M152.19,607.68H102.73c-1,0-1.33-.3-1.33-1.2v-6c0-.9.38-1.4,1.33-1.4h43v-17h-45c-1.43,0-2.09-.6-2.09-2.1v-44.6c0-.9.38-1.4,1.14-1.4h6.07a1.28,1.28,0,0,1,1.33,1.4V574h38.55v-38.6a1.28,1.28,0,0,1,1.33-1.4h6a1.24,1.24,0,0,1,1.33,1.4v70.3C154.38,607.08,153.62,607.68,152.19,607.68Z"/><path class="cls-4" d="M233.65,596.68H184.57c-1.62,0-2.28-.7-2.28-2.2v-59c0-1,.38-1.4,1.42-1.4h5.79a1.34,1.34,0,0,1,1.43,1.5v52.5h36.26v-52.6a1.26,1.26,0,0,1,1.43-1.4h5.79c1,0,1.33.4,1.33,1.5v58.9C235.74,596,235.07,596.68,233.65,596.68Z"/><path class="cls-4" d="M316.44,596.68H264.5c-.85,0-1.23-.4-1.23-1.4v-5.6c0-1,.38-1.4,1.23-1.4h45.76V568h-44.9c-1.43,0-2.09-.6-2.09-2.2v-29.4c0-1.4.66-2.21,2-2.21H317a1.31,1.31,0,0,1,1.42,1.41v5.7a1.26,1.26,0,0,1-1.42,1.4h-45.2v18.7h44.72a2,2,0,0,1,2.28,2.3v30.8C318.81,596,318.05,596.68,316.44,596.68Z"/><path class="cls-4" d="M399.13,596.88h-6c-.95,0-1.33-.4-1.33-1.3v-52.8H354.89v52.8c0,.9-.57,1.3-1.52,1.3h-5.7c-.95,0-1.42-.4-1.42-1.3V514c0-1,.38-1.4,1.23-1.4h5.89a1.33,1.33,0,0,1,1.52,1.4v20.11h43.38c1.43,0,2.09.8,2.09,2.4v59.1C400.36,596.48,400,596.88,399.13,596.88Z"/><path class="cls-4" d="M479.63,596.68H430.55c-1.61,0-2.28-.7-2.28-2.2v-59c0-1,.38-1.4,1.43-1.4h5.79a1.33,1.33,0,0,1,1.42,1.5v52.5h36.27v-52.6a1.26,1.26,0,0,1,1.42-1.4h5.79c.95,0,1.33.4,1.33,1.5v58.9C481.72,596,481.06,596.68,479.63,596.68Z"/><path class="cls-4" d="M622.23,596.38H561.76c-1,0-1.43-.4-1.43-1.4v-6.2c0-1,.48-1.5,1.43-1.5h53.92v-28.5H562.61c-1.52,0-2.28-.6-2.28-2.2V515.37c0-1.6.76-2.4,2.18-2.4h60.2c1,0,1.42.5,1.42,1.4v6.2c0,1.1-.47,1.5-1.42,1.5H569.35v28h53a2,2,0,0,1,2.18,2.3V594C624.51,595.68,623.75,596.38,622.23,596.38Z"/><path class="cls-4" d="M696,543H671.69v45.1h22.88c.76,0,1.14.4,1.14,1.4v5.8c0,1-.38,1.4-1.23,1.4h-30.1a1.24,1.24,0,0,1-1.33-1.4V543H651.38c-1,0-1.43-.4-1.43-1.4v-5.9a1.24,1.24,0,0,1,1.33-1.4h11.77V523.57c0-.9.48-1.4,1.24-1.4h6.07c.95,0,1.33.5,1.33,1.4v10.71H696c.76,0,1.23.5,1.23,1.4v5.9C697.23,542.58,696.76,543,696,543Z"/><path class="cls-4" d="M774.13,596.68H725.05c-1.62,0-2.28-.7-2.28-2.2v-59c0-1,.38-1.4,1.42-1.4H730a1.33,1.33,0,0,1,1.42,1.5v52.5h36.27v-52.6a1.26,1.26,0,0,1,1.42-1.4h5.79c1,0,1.33.4,1.33,1.5v58.9C776.22,596,775.56,596.68,774.13,596.68Z"/><path class="cls-4" d="M857.58,596.68H806.22c-1.42,0-2.09-.7-2.09-2.2v-58.1c0-1.4.67-2.21,2.09-2.21h44.91v-20c0-1,.38-1.4,1.33-1.4h5.88c.95,0,1.33.5,1.33,1.5v80.11C859.67,596,859,596.68,857.58,596.68Zm-6.45-53.8H812.68v45.2h38.45Z"/><path class="cls-4" d="M944.74,596.68h-55c-1.52,0-2.19-.8-2.19-2.4v-57.9a2,2,0,0,1,2.28-2.3h54.21a2,2,0,0,1,2.19,2.2v31.1c0,1.5-.76,2.2-2.28,2.2H896.22v18.6h48.61a1.26,1.26,0,0,1,1.43,1.4v5.6A1.41,1.41,0,0,1,944.74,596.68Zm-7.22-54.3h-41.3v20.4h41.3Z"/><path class="cls-4" d="M1027.43,597h-5.89a1.18,1.18,0,0,1-1.33-1.2v-52.9H982.42v52.7a1.23,1.23,0,0,1-1.32,1.4h-6c-.85,0-1.32-.4-1.32-1.4v-59.2c0-1.4.66-2.21,2.08-2.21h50.7a2,2,0,0,1,2.19,2.21v59.2A1.24,1.24,0,0,1,1027.43,597Z"/><path class="cls-4" d="M1100.15,543h-24.31v45.1h22.88c.76,0,1.14.4,1.14,1.4v5.8c0,1-.38,1.4-1.23,1.4h-30.1a1.24,1.24,0,0,1-1.33-1.4V543h-11.67c-1,0-1.43-.4-1.43-1.4v-5.9a1.24,1.24,0,0,1,1.33-1.4h11.77V523.57c0-.9.48-1.4,1.24-1.4h6.07c1,0,1.33.5,1.33,1.4v10.71h24.31c.76,0,1.23.5,1.23,1.4v5.9C1101.38,542.58,1100.91,543,1100.15,543Z"/><path class="cls-4" d="M1242,596.78h-6.08c-1,0-1.33-.3-1.33-1.4v-30.8H1187v30.8c0,1-.48,1.4-1.43,1.4h-6.07c-1,0-1.43-.4-1.43-1.4V515.27c0-1.6.67-2.3,2.18-2.3h61c1.42,0,2.18.8,2.18,2.5v79.91C1243.41,596.38,1243,596.78,1242,596.78Zm-7.41-74.71H1187v33.51h47.56Z"/><path class="cls-4" d="M1324.49,596.68h-51.94c-.85,0-1.23-.4-1.23-1.4v-5.6c0-1,.38-1.4,1.23-1.4h45.77V568h-44.91c-1.42,0-2.09-.6-2.09-2.2v-29.4c0-1.4.67-2.21,2-2.21h51.75a1.31,1.31,0,0,1,1.42,1.41v5.7a1.26,1.26,0,0,1-1.42,1.4h-45.19v18.7h44.71a2,2,0,0,1,2.28,2.3v30.8C1326.86,596,1326.1,596.68,1324.49,596.68Z"/><path class="cls-4" d="M1407.08,596.68h-51.93c-.85,0-1.23-.4-1.23-1.4v-5.6c0-1,.38-1.4,1.23-1.4h45.76V568H1356c-1.43,0-2.09-.6-2.09-2.2v-29.4c0-1.4.66-2.21,2-2.21h51.74a1.31,1.31,0,0,1,1.43,1.41v5.7a1.26,1.26,0,0,1-1.43,1.4h-45.19v18.7h44.72a2,2,0,0,1,2.28,2.3v30.8C1409.46,596,1408.7,596.68,1407.08,596.68Z"/><path class="cls-4" d="M1491.1,596.68h-52c-1.52,0-2.19-.7-2.19-2.2v-58.1c0-1.4.67-2.21,2.09-2.21h52.12a2,2,0,0,1,2.19,2.21v58.1A1.94,1.94,0,0,1,1491.1,596.68Zm-6.36-53.8h-39.21v45.2h39.21Z"/><path class="cls-4" d="M1575.88,596.68h-52.59c-1.43,0-2.09-.7-2.09-2.2v-58c0-1.5.66-2.31,2-2.31H1576c.76,0,1.14.61,1.14,1.41v5.9c0,1-.38,1.4-1.14,1.4h-46.14v45.2H1576q1.14,0,1.14,1.5v5.8A1.14,1.14,0,0,1,1575.88,596.68Z"/><path class="cls-4" d="M1611.58,523.27h-6.08c-.85,0-1.33-.39-1.33-1.39v-8.11c0-.9.48-1.4,1.24-1.4h6.17c1,0,1.33.5,1.33,1.4v8C1612.91,522.77,1612.53,523.27,1611.58,523.27Zm0,73.51h-6.08a1.16,1.16,0,0,1-1.33-1.3v-60.3c0-.9.48-1.4,1.24-1.4h6.17c1,0,1.33.6,1.33,1.5v60.1C1612.91,596.38,1612.53,596.78,1611.58,596.78Z"/><path class="cls-4" d="M1698.35,596.68h-55c-1.42,0-2.09-.7-2.09-2.2v-31.4c0-1.5.67-2.3,2.09-2.3h48.42v-18.3h-49.18c-.95,0-1.33-.4-1.33-1.4v-5.6c0-1,.38-1.4,1.33-1.4h55.83c1.33,0,2.09.7,2.09,2.3v58C1700.54,596,1699.78,596.68,1698.35,596.68Zm-6.55-29.1h-41.58v20.7h41.58Z"/><path class="cls-4" d="M1771.83,543h-24.3v45.1h22.88c.76,0,1.14.4,1.14,1.4v5.8c0,1-.38,1.4-1.23,1.4h-30.1a1.23,1.23,0,0,1-1.33-1.4V543h-11.68c-1,0-1.42-.4-1.42-1.4v-5.9a1.23,1.23,0,0,1,1.33-1.4h11.77V523.57c0-.9.47-1.4,1.23-1.4h6.08c1,0,1.33.5,1.33,1.4v10.71h24.3c.76,0,1.24.5,1.24,1.4v5.9C1773.07,542.58,1772.59,543,1771.83,543Z"/><path class="cls-4" d="M1806.77,523.27h-6.08c-.85,0-1.32-.39-1.32-1.39v-8.11c0-.9.47-1.4,1.23-1.4h6.17c1,0,1.33.5,1.33,1.4v8C1808.1,522.77,1807.72,523.27,1806.77,523.27Zm0,73.51h-6.08a1.16,1.16,0,0,1-1.32-1.3v-60.3c0-.9.47-1.4,1.23-1.4h6.17c1,0,1.33.6,1.33,1.5v60.1C1808.1,596.38,1807.72,596.78,1806.77,596.78Z"/><path class="cls-4" d="M1891,596.68h-52c-1.51,0-2.18-.7-2.18-2.2v-58.1c0-1.4.67-2.21,2.09-2.21H1891a2,2,0,0,1,2.19,2.21v58.1A1.94,1.94,0,0,1,1891,596.68Zm-6.36-53.8h-39.21v45.2h39.21Z"/><path class="cls-4" d="M1974.72,597h-5.89a1.18,1.18,0,0,1-1.33-1.2v-52.9h-37.79v52.7a1.23,1.23,0,0,1-1.32,1.4h-6c-.85,0-1.32-.4-1.32-1.4v-59.2c0-1.4.66-2.21,2.08-2.21h50.7a2,2,0,0,1,2.19,2.21v59.2A1.24,1.24,0,0,1,1974.72,597Z"/><path class="cls-6" d="M147.8,525.17c4.63-3.1,8.92-7.16,13.46-11.43,14.17-13.35,30.26-28.41,67.94-28.41,2.19,0,4.37,0,6.65.11,6.21.32,12.41.42,18.45.42h0c76.16,0,130.63-21.78,143.22-42.29,3.67-5.87,12.86-16.45,12.94-16.56l.09-.1c4.28-5.56,8.22-10,12.5-15,6.21-7.16,12.68-14.64,21-26,8.92-12.28,14.16-15.7,19.76-19.44,2-1.38,4.37-2.88,6.91-4.91l23.08-18.37L465,337.51a54.11,54.11,0,0,0-8-.85c10.84-5.45,25.09-14.85,38.65-34l4.37-6.09-6.56,1.07c-9.27,1.49-19.93,3-28.94,3-5.95,0-10.67-.64-14-2-3.5-1.39-7.78-3.1-13.38-5.13-.79-.32-1.57-.53-2.27-.85a23.52,23.52,0,0,1-3.32-1.61c1.48.22,3.14.65,5,1.07a70.91,70.91,0,0,0,17,2.35A58,58,0,0,0,466.25,293l7.17-1.71L467,287.21c-8-5-45.47-41.33-56.14-61.73-1.48-2.78-3-5.56-4.46-8.23A77.93,77.93,0,0,0,422.79,219a83.44,83.44,0,0,0,19.68-2.45l7.43-1.82-6.82-3.95c-17.93-10.47-35.33-24.25-43.63-31l-2-1.61c-8.56-6.73-18.27-14.42-29.64-20.72a136.4,136.4,0,0,0-12.41-6,93.71,93.71,0,0,0-9-3.31c6.91-5.66,18.1-15.49,26.76-31.19l5.42-9.82-8.66,5.34c-7.26,4.48-27,7.15-53,7.15-7.43,0-14.77-.21-19.67-.64-5.33-.42-10.84-1.28-16.09-2-8.57-1.28-17.22-2.56-26-2.56a80.71,80.71,0,0,0-11.72.86c-13.64,2.13-16.87,2.56-17.92,2.67a10.9,10.9,0,0,0-1.14.21c-.52.11-1.92.53-7.95,1.92.26-1.49.61-3.42,1-5.12,2.1-10.79,5.33-27.13-.18-36.42l-.87-1.5-1.49.21c-13.29,2.14-30,32.69-41,52.87-2.71,4.91-5.68,10.47-7.25,12.71a17,17,0,0,0-9.53-2.56,52.77,52.77,0,0,0-12.51,2,39.22,39.22,0,0,1-7.17,1.28,9.24,9.24,0,0,1-1.13-.11,4.81,4.81,0,0,0-1.67-.21c-4.63,0-6.73,5.66-8.3,9.82a23.61,23.61,0,0,1-1.93,4.28c-.26,0-.61-.11-1-.11-5.24,0-8.92,5.34-12.41,10.47-3.07,4.48-6,8.75-9.36,8.75h-1.22c-13,0-16.62,16.77-20.47,34.5-1.39,6.62-2.88,13.35-4.89,19.76-.79,1.18-4.37,5.66-8.22,10.36-9.09,11.11-24.22,29.8-34.89,45.61C20.75,303.44-.85,339.12,0,346a3.32,3.32,0,0,0,1.22,2.46c3.32,2.67,7.52,17,10.93,28.51,5.25,17.73,8.66,28.63,13.38,30.55a10.65,10.65,0,0,0,1.4.64C56.69,422.1,70.85,425,77.5,425c3.67,0,6.29-.86,8-2.57,1-1,1.57-2.77,3.06-7.26,3.24-9.93,9.88-30.76,24-44.32,20.46-19.87,37.6-29,55.44-29.69,14-.54,20.28-8.23,25.79-15.17,4.46-5.55,8-9.93,15-9.93a27.59,27.59,0,0,1,10.32,2.35c7.17,2.88,13.2,12,16,24.35,5.42,23.39-1.22,51.58-17.66,75.19-2.71,3.84-8.57,8.65-15.39,14.2-20.81,17-52.38,42.62-57.89,89.82l-.69,6.09Z"/><path class="cls-4" d="M440.54,340.72c8-4.38,31.48-9.4,53.34-40.37-17.31,2.77-34.45,4.7-44.07.85-3.41-1.39-7.69-3.1-13.29-5a20.28,20.28,0,0,1-2.36-.85c-5.34-2.25-8.13-4.81-9.53-6.73,6.64-4.59,19.23,6.19,41.18,1-8.66-5.45-46.25-42.08-57.1-62.8-2.88-5.66-5.68-10.36-8-14.21,3.85.43,19,6,41.27.54-19.59-11.43-38.56-26.81-45.9-32.68-8.49-6.63-18.1-14.32-29.3-20.4-4.28-2.25-8.22-4.17-12.24-5.88a97.12,97.12,0,0,0-14.43-4.8c3.23-3,12.87-9.6,22.13-21.27-1.15-2.17-2.3-4.35-3.32-6.57a17.89,17.89,0,0,0-6.83,8.54c-1.83,5.44-11.29,3.11-9.46-2.35a23.44,23.44,0,0,1,3.53-6.64,303.6,303.6,0,0,1-49.07.73c-5.5-.43-11-1.28-16.35-2-12.06-1.71-24.48-3.52-36.9-1.6-32,5-7.34.43-29.55,5.34-3.41.75,8.57-30.65,1-43.36-17.92,2.88-46,68.35-48.53,66.22-9.18-7.91-25.18,1.7-31,0-6.73-2-7.17,14.63-11.45,14-9-1.39-13.64,19.76-23.09,19.11C85,178.38,84.84,208,77.23,232c-.7,2.14-27.19,32.26-43.45,56.61C16.46,314.55.55,344.24,2.56,345.84c8.13,6.73,16.27,55.65,23.7,58.75,2.1.85,48.88,24,57.62,15.48,2-1.92,7.78-32.89,27-51.58,18.62-18.05,36.55-29.69,56.92-30.44,28.51-1.07,22.47-34.29,52-22.54,19.76,7.91,32,57.78-.53,104.56-11.19,16-65.4,40.48-72.75,102.43,19.24-12.93,32.88-42.62,89.37-40.05,86.38,3.95,147.07-20.3,159.57-40.59,3.85-6.19,13.2-17,13.2-17,4.29-5.55,8.31-10.15,12.6-15.06,6.2-7.16,12.59-14.53,20.81-25.74,9.26-12.6,14.6-16.23,20.37-20.08a79,79,0,0,0,6.73-4.81L487,345.1l-22.3-4.49C459,339.44,448.76,339.22,440.54,340.72Z"/><path class="cls-7" d="M162.14,496.65c11.1-25.2,31.3-41.65,45.81-53.51,7.79-6.3,13.91-11.32,17.58-16.55,18.71-26.81,26.14-59.28,19.94-86.83-3.76-16.66-23.26-77.22-51.86-89.08,22.21,30.55,5.78,55.22.18,62.16-4.9,6.09-16.53,14.85-26.23,15.17-20.29.75-39.35,10.79-61.73,32.57-16.27,15.81-23.7,38.77-27.28,49.77-.18.54-.35,1-.53,1.5-2.71.11-9.53-.54-25-6.41-1.48-.53,23.61-20.29,19.76-22.43-6-3.2-26,20-26.75,19.65-6.91-2.88-12.59-5.55-15.39-6.83-.18-.11-.44-.22-.61-.32-2.1-3.53-5.6-15.27-8-23.18-.87-3-1.75-5.87-2.54-8.54S41.56,363,26,336C25,334.2,15.76,352.36,15.07,350.54a59.25,59.25,0,0,0-3.24-7.15c3.85-8.55,14.69-28.2,28.33-48.6C50.48,279.41,65.43,261,74.35,250.15c8.74-10.79,9.7-11.86,10.58-14.63,2.27-7.16,3.85-14.42,5.33-21.36,4-18.48,6.21-25,10.5-24.68,8.83.54,14.33-7.47,18.44-13.35,1.32-1.81,3.41-4.91,4.46-5.76,7.61.85,10.85-7.8,12.42-12,.18-.53.44-1.17.7-1.81a35.47,35.47,0,0,0,10-1.6c4.72-1.18,10.58-2.57,14.08-1.18,9.35,3.85,10.66-5.55,19.49-21.68,5.34-9.72,19.24-33.54,31.13-42.61-.43,6,1.84,9.4.53,20.82-1,8.12-9.36,33.65-24,50.63,1.4.53,30.43-8.65,31.92-8.76,25.44-3.2,103.26,27.13,145.06,83.2,38.91,52.23,35.15,161.7,32.17,179.54-.43,2.67-4.11,14.31-8,20.72C380,450.4,325.82,476.36,236.29,472.3,197.11,470.7,176.48,484.05,162.14,496.65Z"/><path class="cls-7" d="M210.93,144.31s2.53-11.11,33.92-16c16.7-2.67,33.76,2.24,51.59,3.73,16.79,1.39,37.86,3.21,50.54-3.31-11,13.78-22.56,22.65-31.74,25.42,14.08,4.38,25.62,2.89,48.09,15.17s39.35,31.83,51.77,34.82c-19.15-1.39-28.6-3.64-31-2.25-2.18,1.29,5.95,8,17.67,30.44s33,43.79,38.91,46.25c-13.91-1-21.6.43-24.31,3.1-2.1,2-3.5,16.87,17.92,24.35s21.86,5.76,37.25,6.62a83.44,83.44,0,0,1-28.07,15.48c-9.53,3-18.18,14.53-24.22,20.08,5.6,4.92,19.68,3.74,23.87,2.89,12.6-2.57,15-1.92,21.78-.54-8.48,6.73-15.13,8-28.77,26.6s-22.47,26.7-33.23,40.58c-.43-9.72,2.36-22.75,3.68-40.9,1.66-22.43-2.8-64.94-10.5-93.46-15-56-63.65-98-100.29-115.13C256.22,150.07,243.8,144,210.93,144.31Z"/><path class="cls-4" d="M130.2,218.62s-26.76,12.71-28.68,16.77-18.1,34.29-16.79,36.53S94,259.21,99.59,258.78s16.09-4.16,17.75-8.86,3-10.47.61-11.75-4.37-2.67-1.66-4.27,11.11-7.59,11.11-7.59S129.15,221.62,130.2,218.62Z"/><path class="cls-8" d="M207.52,93.15s-5.34,20.61-7.26,26.16a119.83,119.83,0,0,1-7.87,16.77c-1.49,2.35-4.81,6.94-6.38,9.72s-3.5,10.36,1.05,6.73c5-4.06,17.22-34.5,18.45-37.38s6.38-25.31,6.82-26.59C212.5,87.17,208,91.44,207.52,93.15Z"/><polygon class="cls-9" points="375.63 166.11 267.7 194.44 158.55 166.11 180.94 83.15 353.24 83.15 375.63 166.11"/><polygon class="cls-4" points="375.63 166.11 353.24 83.15 306.22 83.15 306.22 184.42 375.63 166.11"/><polygon class="cls-9" points="433.06 61.39 266.31 28.05 99.73 61.39 99.73 75.48 266.31 121.03 433.06 75.48 433.06 61.39"/><polygon class="cls-4" points="266.31 106.94 100.42 61.39 266.31 28.05 433.06 61.39 266.31 106.94"/><path class="cls-10" d="M405.82,68.59A3.29,3.29,0,0,1,402,71.1L263.36,69.84a3,3,0,0,1-2.78-3.44h0a3.28,3.28,0,0,1,3.82-2.5L403,65.15a3.29,3.29,0,0,1,2.78,3.44Z"/><path class="cls-10" d="M406.86,105.22a3.15,3.15,0,0,1-3.3,3h-.17a3.15,3.15,0,0,1-3.3-3V67.34a3.15,3.15,0,0,1,3.3-3h.17a3.14,3.14,0,0,1,3.3,3Z"/><ellipse class="cls-10" cx="403.91" cy="112.73" rx="11.45" ry="10.33"/><path class="cls-10" d="M418.17,168.88a4.11,4.11,0,0,1-4.33,3.92H392.49a4.21,4.21,0,0,1-4.34-3.92l4.34-40.54a4.1,4.1,0,0,1,4.34-3.91h12.84a4.21,4.21,0,0,1,4.34,3.91Z"/><path class="cls-11" d="M413.8,127.76a4.1,4.1,0,0,1-4.34,3.91H397.14a4.09,4.09,0,0,1-4.33-3.91v-6.42a4.09,4.09,0,0,1,4.33-3.91h12.32a4.1,4.1,0,0,1,4.34,3.91Z"/><ellipse class="cls-11" cx="266.83" cy="66.4" rx="21.17" ry="6.89"/></g></g></svg>